<svg version="1.1" class="clearos-svg clearfoundation app-vendor-clearfoundation app-free app-category-network app-sub-category-vpn" viewBox="0 0 400 400" preserveAspectRatio="xMinYMin" xmlns="http://www.w3.org/2000/svg" xmlns:xlink= "http://www.w3.org/1999/xlink">
<path fill="#AA0707" d="M91.666,184.647"/>
<path fill="#AA0707" d="M123.245,247.805"/>
<path fill="#AA0707" d="M91.666,184.647"/>
<path fill="#AA0707" d="M123.245,247.805"/>
<g>
	<path fill="#686868" d="M169.576,169.584H32.79c-16.783,0-30.396,13.629-30.396,30.412v70.938
		c0,16.799,13.612,30.404,30.396,30.404h136.802c16.783,0,30.412-13.605,30.412-30.404v-70.938
		C199.988,183.213,186.359,169.584,169.576,169.584z M180.979,264.107c0,13.59-10.995,24.553-24.562,24.553H45.915
		c-13.565,0-24.562-11.026-24.562-24.553v-57.301c0-13.575,10.995-24.562,24.562-24.562h110.503
		c13.582,0,24.562,11.002,24.562,24.562L180.979,264.107L180.979,264.107z"/>
	<path fill="#686868" d="M367.188,48H230.408c-16.799,0-30.42,13.613-30.42,30.396v70.93c0,16.783,13.623,30.412,30.42,30.412
		h136.779c16.813,0,30.419-13.629,30.419-30.412v-70.93C397.605,61.613,384,48,367.188,48z M378.605,142.531
		c0,13.558-10.994,24.545-24.568,24.545H243.559c-13.592,0-24.537-11.018-24.537-24.545V85.223
		c0-13.574,10.979-24.561,24.537-24.561h110.479c13.59,0,24.568,11.002,24.568,24.561V142.531L378.605,142.531z"/>
	<rect x="231.666" y="75.848" fill="#686868" width="134.263" height="76.002"/>
	<rect x="34.063" y="197.448" fill="#686868" width="134.263" height="76.002"/>
	<path fill="#686868" d="M174.672,301.338H27.732c-13.999,0-25.339,11.34-25.339,25.339c0,13.968,11.34,25.323,25.339,25.323
		h146.938c13.976,0,25.315-11.355,25.315-25.323C199.988,312.678,188.646,301.338,174.672,301.338z M172.77,326.677h-46.872
		c-3.847,0-6.977-3.13-6.977-6.983c0-3.838,3.13-6.95,6.96-6.95h46.872c3.847,0,6.977,3.112,6.977,6.95
		C179.729,323.547,176.6,326.677,172.77,326.677z"/>
	<path fill="#686868" d="M372.251,179.737H225.313c-13.982,0-25.324,11.333-25.324,25.332c0,13.982,11.341,25.324,25.324,25.324
		h146.938c13.999,0,25.323-11.342,25.323-25.324C397.605,191.07,386.25,179.737,372.251,179.737z M372.88,206.956h-46.872
		c-3.821,0-6.951-3.13-6.951-6.976c0-3.854,3.113-6.96,6.951-6.96h46.872c3.869,0,6.984,3.106,6.984,6.96
		C379.864,203.826,376.749,206.956,372.88,206.956z"/>
	<rect x="292.475" y="230.408" fill="#686868" width="29.113" height="15.188"/>
	<rect x="292.475" y="262.063" fill="#686868" width="29.113" height="15.194"/>
	<rect x="292.475" y="290.579" fill="#686868" width="29.113" height="15.179"/>
	<rect x="276.65" y="306.104" fill="#686868" width="15.192" height="29.131"/>
	<rect x="245.604" y="306.104" fill="#686868" width="15.192" height="29.131"/>
	<rect x="214.584" y="306.104" fill="#686868" width="15.193" height="29.131"/>
</g>
</svg>
